HIERARCHY
ROOT mixamorig2:Hips
{
	OFFSET 0.000401 100.080734 1.193004
	CHANNELS 6 Xposition Yposition Zposition Xrotation Yrotation Zrotation
	JOINT mixamorig2:Spine
	{
		OFFSET 0.000000 8.951164 -0.286642
		CHANNELS 6 Xposition Yposition Zposition Xrotation Yrotation Zrotation
		JOINT mixamorig2:Spine1
		{
			OFFSET 0.000000 10.443016 -0.334416
			CHANNELS 3 Xrotation Yrotation Zrotation
			JOINT mixamorig2:Spine2
			{
				OFFSET -0.000000 11.934875 -0.382189
				CHANNELS 6 Xposition Yposition Zposition Xrotation Yrotation Zrotation
				JOINT mixamorig2:Neck
				{
					OFFSET 0.000000 13.426727 -0.429963
					CHANNELS 6 Xposition Yposition Zposition Xrotation Yrotation Zrotation
					JOINT mixamorig2:Head
					{
						OFFSET 0.000000 8.477280 0.443076
						CHANNELS 6 Xposition Yposition Zposition Xrotation Yrotation Zrotation
						JOINT mixamorig2:HeadTop_End
						{
							OFFSET 0.000000 21.306763 1.113628
							CHANNELS 6 Xposition Yposition Zposition Xrotation Yrotation Zrotation
							End Site
							{
								OFFSET 0.000000 21.335846 0.000000
							}
						}
					}
				}
				JOINT mixamorig2:LeftShoulder
				{
					OFFSET 5.225270 11.895874 -0.427614
					CHANNELS 6 Xposition Yposition Zposition Xrotation Yrotation Zrotation
					JOINT mixamorig2:LeftArm
					{
						OFFSET 10.405485 -3.014740 0.004701
						CHANNELS 6 Xposition Yposition Zposition Xrotation Yrotation Zrotation
						JOINT mixamorig2:LeftForeArm
						{
							OFFSET 25.316505 -2.258133 -2.180183
							CHANNELS 3 Xrotation Yrotation Zrotation
							JOINT mixamorig2:LeftHand
							{
								OFFSET 24.444893 1.498306 0.870077
								CHANNELS 3 Xrotation Yrotation Zrotation
								JOINT mixamorig2:LeftHandThumb1
								{
									OFFSET 2.777336 -1.335144 3.119181
									CHANNELS 6 Xposition Yposition Zposition Xrotation Yrotation Zrotation
									JOINT mixamorig2:LeftHandThumb2
									{
										OFFSET 2.221863 -1.068069 2.495345
										CHANNELS 6 Xposition Yposition Zposition Xrotation Yrotation Zrotation
										JOINT mixamorig2:LeftHandThumb3
										{
											OFFSET 2.339340 -1.267441 1.553794
											CHANNELS 6 Xposition Yposition Zposition Xrotation Yrotation Zrotation
											JOINT mixamorig2:LeftHandThumb4
											{
												OFFSET 2.048599 -0.536865 0.831264
												CHANNELS 6 Xposition Yposition Zposition Xrotation Yrotation Zrotation
												End Site
												{
													OFFSET 1.787041 -0.527359 1.305532
												}
											}
										}
									}
								}
								JOINT mixamorig2:LeftHandIndex1
								{
									OFFSET 8.911644 -0.521713 3.864252
									CHANNELS 6 Xposition Yposition Zposition Xrotation Yrotation Zrotation
									JOINT mixamorig2:LeftHandIndex2
									{
										OFFSET 3.059845 -0.215408 0.228803
										CHANNELS 6 Xposition Yposition Zposition Xrotation Yrotation Zrotation
										JOINT mixamorig2:LeftHandIndex3
										{
											OFFSET 2.711075 -0.663422 0.226076
											CHANNELS 6 Xposition Yposition Zposition Xrotation Yrotation Zrotation
											JOINT mixamorig2:LeftHandIndex4
											{
												OFFSET 2.368217 -0.577866 0.197348
												CHANNELS 6 Xposition Yposition Zposition Xrotation Yrotation Zrotation
												End Site
												{
													OFFSET 2.368538 -0.577957 0.193201
												}
											}
										}
									}
								}
								JOINT mixamorig2:LeftHandMiddle1
								{
									OFFSET 8.960663 -0.277771 1.460124
									CHANNELS 6 Xposition Yposition Zposition Xrotation Yrotation Zrotation
									JOINT mixamorig2:LeftHandMiddle2
									{
										OFFSET 3.296608 -0.231995 0.133281
										CHANNELS 6 Xposition Yposition Zposition Xrotation Yrotation Zrotation
										JOINT mixamorig2:LeftHandMiddle3
										{
											OFFSET 2.998512 -0.794632 0.145683
											CHANNELS 6 Xposition Yposition Zposition Xrotation Yrotation Zrotation
											JOINT mixamorig2:LeftHandMiddle4
											{
												OFFSET 2.642899 -0.688507 0.127909
												CHANNELS 6 Xposition Yposition Zposition Xrotation Yrotation Zrotation
												End Site
												{
													OFFSET 2.643066 -0.688583 0.123986
												}
											}
										}
									}
								}
								JOINT mixamorig2:LeftHandRing1
								{
									OFFSET 9.070107 -0.353699 -0.590426
									CHANNELS 6 Xposition Yposition Zposition Xrotation Yrotation Zrotation
									JOINT mixamorig2:LeftHandRing2
									{
										OFFSET 2.741226 -0.232651 -0.019853
										CHANNELS 6 Xposition Yposition Zposition Xrotation Yrotation Zrotation
										JOINT mixamorig2:LeftHandRing3
										{
											OFFSET 2.657944 -0.845871 0.000170
											CHANNELS 6 Xposition Yposition Zposition Xrotation Yrotation Zrotation
											JOINT mixamorig2:LeftHandRing4
											{
												OFFSET 2.292778 -0.648102 -0.002023
												CHANNELS 6 Xposition Yposition Zposition Xrotation Yrotation Zrotation
												End Site
												{
													OFFSET 2.292755 -0.648163 -0.004113
												}
											}
										}
									}
								}
								JOINT mixamorig2:LeftHandPinky1
								{
									OFFSET 8.657875 -0.562546 -2.660492
									CHANNELS 6 Xposition Yposition Zposition Xrotation Yrotation Zrotation
									JOINT mixamorig2:LeftHandPinky2
									{
										OFFSET 2.459373 -0.319016 0.020672
										CHANNELS 6 Xposition Yposition Zposition Xrotation Yrotation Zrotation
										JOINT mixamorig2:LeftHandPinky3
										{
											OFFSET 2.026375 -0.468338 0.024184
											CHANNELS 6 Xposition Yposition Zposition Xrotation Yrotation Zrotation
											JOINT mixamorig2:LeftHandPinky4
											{
												OFFSET 1.799408 -0.396194 0.020881
												CHANNELS 6 Xposition Yposition Zposition Xrotation Yrotation Zrotation
												End Site
												{
													OFFSET 1.799408 -0.396225 0.019876
												}
											}
										}
									}
								}
							}
						}
					}
				}
				JOINT mixamorig2:RightShoulder
				{
					OFFSET -5.225270 11.895874 -0.432313
					CHANNELS 6 Xposition Yposition Zposition Xrotation Yrotation Zrotation
					JOINT mixamorig2:RightArm
					{
						OFFSET -10.405491 -3.014709 -0.004700
						CHANNELS 6 Xposition Yposition Zposition Xrotation Yrotation Zrotation
						JOINT mixamorig2:RightForeArm
						{
							OFFSET -25.316505 -2.258133 -2.163533
							CHANNELS 3 Xrotation Yrotation Zrotation
							JOINT mixamorig2:RightHand
							{
								OFFSET -24.444889 1.498276 0.898457
								CHANNELS 3 Xrotation Yrotation Zrotation
								JOINT mixamorig2:RightHandThumb1
								{
									OFFSET -2.497948 -1.215515 2.916487
									CHANNELS 6 Xposition Yposition Zposition Xrotation Yrotation Zrotation
									JOINT mixamorig2:RightHandThumb2
									{
										OFFSET -1.998367 -0.972397 2.333192
										CHANNELS 6 Xposition Yposition Zposition Xrotation Yrotation Zrotation
										JOINT mixamorig2:RightHandThumb3
										{
											OFFSET -2.439003 -1.285568 1.731896
											CHANNELS 6 Xposition Yposition Zposition Xrotation Yrotation Zrotation
											JOINT mixamorig2:RightHandThumb4
											{
												OFFSET -2.188538 -1.177322 1.346566
												CHANNELS 6 Xposition Yposition Zposition Xrotation Yrotation Zrotation
												End Site
												{
													OFFSET -1.989578 -1.164322 1.635543
												}
											}
										}
									}
								}
								JOINT mixamorig2:RightHandIndex1
								{
									OFFSET -8.954491 -0.355988 3.811164
									CHANNELS 6 Xposition Yposition Zposition Xrotation Yrotation Zrotation
									JOINT mixamorig2:RightHandIndex2
									{
										OFFSET -3.007729 -0.359833 0.288444
										CHANNELS 6 Xposition Yposition Zposition Xrotation Yrotation Zrotation
										JOINT mixamorig2:RightHandIndex3
										{
											OFFSET -2.754227 -0.734680 0.284436
											CHANNELS 6 Xposition Yposition Zposition Xrotation Yrotation Zrotation
											JOINT mixamorig2:RightHandIndex4
											{
												OFFSET -2.397964 -0.334747 0.232329
												CHANNELS 6 Xposition Yposition Zposition Xrotation Yrotation Zrotation
												End Site
												{
													OFFSET -2.397911 -0.334702 0.233005
												}
											}
										}
									}
								}
								JOINT mixamorig2:RightHandMiddle1
								{
									OFFSET -8.892281 -0.452988 1.476768
									CHANNELS 6 Xposition Yposition Zposition Xrotation Yrotation Zrotation
									JOINT mixamorig2:RightHandMiddle2
									{
										OFFSET -3.195786 -0.007690 0.063549
										CHANNELS 6 Xposition Yposition Zposition Xrotation Yrotation Zrotation
										JOINT mixamorig2:RightHandMiddle3
										{
											OFFSET -3.083305 -0.799866 0.088820
											CHANNELS 6 Xposition Yposition Zposition Xrotation Yrotation Zrotation
											JOINT mixamorig2:RightHandMiddle4
											{
												OFFSET -2.562057 -1.008820 0.085763
												CHANNELS 6 Xposition Yposition Zposition Xrotation Yrotation Zrotation
												End Site
												{
													OFFSET -2.562019 -1.008774 0.087573
												}
											}
										}
									}
								}
								JOINT mixamorig2:RightHandRing1
								{
									OFFSET -9.127327 -0.285721 -0.628775
									CHANNELS 6 Xposition Yposition Zposition Xrotation Yrotation Zrotation
									JOINT mixamorig2:RightHandRing2
									{
										OFFSET -2.851372 -0.321930 -0.027776
										CHANNELS 6 Xposition Yposition Zposition Xrotation Yrotation Zrotation
										JOINT mixamorig2:RightHandRing3
										{
											OFFSET -2.564888 -0.830017 -0.010143
											CHANNELS 6 Xposition Yposition Zposition Xrotation Yrotation Zrotation
											JOINT mixamorig2:RightHandRing4
											{
												OFFSET -2.238480 -0.470093 -0.015774
												CHANNELS 6 Xposition Yposition Zposition Xrotation Yrotation Zrotation
												End Site
												{
													OFFSET -2.238487 -0.470093 -0.015857
												}
											}
										}
									}
								}
								JOINT mixamorig2:RightHandPinky1
								{
									OFFSET -8.514366 -0.713730 -2.584844
									CHANNELS 6 Xposition Yposition Zposition Xrotation Yrotation Zrotation
									JOINT mixamorig2:RightHandPinky2
									{
										OFFSET -2.533974 -0.132950 -0.068521
										CHANNELS 6 Xposition Yposition Zposition Xrotation Yrotation Zrotation
										JOINT mixamorig2:RightHandPinky3
										{
											OFFSET -2.084183 -0.507675 -0.046603
											CHANNELS 6 Xposition Yposition Zposition Xrotation Yrotation Zrotation
											JOINT mixamorig2:RightHandPinky4
											{
												OFFSET -1.899948 -0.434219 -0.043102
												CHANNELS 6 Xposition Yposition Zposition Xrotation Yrotation Zrotation
												End Site
												{
													OFFSET -1.899994 -0.434174 -0.041793
												}
											}
										}
									}
								}
							}
						}
					}
				}
			}
		}
	}
	JOINT mixamorig2:LeftUpLeg
	{
		OFFSET 8.899668 -4.969727 -0.781577
		CHANNELS 6 Xposition Yposition Zposition Xrotation Yrotation Zrotation
		JOINT mixamorig2:LeftLeg
		{
			OFFSET 3.062883 -42.749832 -0.694436
			CHANNELS 3 Xrotation Yrotation Zrotation
			JOINT mixamorig2:LeftFoot
			{
				OFFSET 2.562582 -42.568401 -4.052387
				CHANNELS 3 Xrotation Yrotation Zrotation
				JOINT mixamorig2:LeftToeBase
				{
					OFFSET 0.357713 -8.547654 13.291756
					CHANNELS 6 Xposition Yposition Zposition Xrotation Yrotation Zrotation
					JOINT mixamorig2:LeftToe_End
					{
						OFFSET 0.306569 0.162115 6.425951
						CHANNELS 3 Xrotation Yrotation Zrotation
						End Site
						{
							OFFSET 0.306568 0.162116 6.425950
						}
					}
				}
			}
		}
	}
	JOINT mixamorig2:RightUpLeg
	{
		OFFSET -8.899668 -4.969727 -0.953905
		CHANNELS 6 Xposition Yposition Zposition Xrotation Yrotation Zrotation
		JOINT mixamorig2:RightLeg
		{
			OFFSET -3.062883 -42.749836 -0.564207
			CHANNELS 3 Xrotation Yrotation Zrotation
			JOINT mixamorig2:RightFoot
			{
				OFFSET -2.562577 -42.568367 -4.016928
				CHANNELS 3 Xrotation Yrotation Zrotation
				JOINT mixamorig2:RightToeBase
				{
					OFFSET -0.357718 -8.547743 13.332318
					CHANNELS 6 Xposition Yposition Zposition Xrotation Yrotation Zrotation
					JOINT mixamorig2:RightToe_End
					{
						OFFSET -0.306573 0.162063 6.518644
						CHANNELS 6 Xposition Yposition Zposition Xrotation Yrotation Zrotation
						End Site
						{
							OFFSET -0.306572 0.162061 6.518645
						}
					}
				}
			}
		}
	}
}
MOTION
Frames: 3
Frame Time: 0.033333
-2.324146 96.214279 -0.112906 28.274733 -31.033040 17.945578 0.000001 8.951153 -0.286639 -1.706565 1.388624 1.763620 -3.481247 1.486346 0.739093 -0.000000 11.934866 -0.382194 -3.514400 1.401811 0.721570 -0.000001 13.426762 -0.429961 -9.784085 0.560585 -1.598056 0.000002 8.477333 0.443073 -9.784084 0.560578 -1.598059 0.000001 21.306778 1.113626 0.000000 0.000000 -0.000000 5.225266 11.895902 -0.427613 -0.430584 7.495738 -4.400857 10.405492 -3.014771 0.004704 202.105830 -129.746888 117.458872 -0.492044 -3.097511 -8.599669 -36.547133 -10.458461 16.783689 2.777330 -1.335142 3.119181 6.371869 11.198697 -0.367753 2.221883 -1.068080 2.495343 -4.573042 -4.692944 2.462273 2.339331 -1.267430 1.553797 0.468030 -8.718668 -8.565713 2.048596 -0.536897 0.831262 -0.000004 0.000005 0.000002 8.911644 -0.521708 3.864252 -0.420242 -4.973009 2.202706 3.059851 -0.215424 0.228804 -0.726044 0.417083 9.666390 2.711097 -0.663381 0.226079 0.002429 -0.002644 -0.036873 2.368208 -0.577820 0.197350 -0.000005 0.000003 0.000004 8.960668 -0.277773 1.460125 -0.445256 -6.932590 2.216601 3.296602 -0.232014 0.133280 -0.443778 0.413177 10.781896 2.998516 -0.794638 0.145681 0.009063 -0.009789 -0.240380 2.642885 -0.688509 0.127908 0.000001 -0.000001 -0.000004 9.070105 -0.353682 -0.590427 -0.543394 -9.652446 3.011332 2.741230 -0.232626 -0.019854 0.081247 0.413010 12.801985 2.657952 -0.845883 0.000169 -0.016615 -0.049830 -1.868748 2.292759 -0.648113 -0.002021 -0.000004 -0.000001 -0.000001 8.657879 -0.562554 -2.660492 -0.646300 -4.699391 6.032376 2.459373 -0.319030 0.020676 -0.565767 -3.825125 5.099178 2.026386 -0.468319 0.024184 0.002781 -0.018334 -0.595968 1.799409 -0.396205 0.020883 0.000000 0.000002 0.000003 -5.225270 11.895894 -0.432313 -0.331103 -8.862322 2.400275 -10.405491 -3.014730 -0.004696 -83.436874 56.394608 51.135673 -2.769658 26.647944 9.210759 -31.390378 15.106835 -34.280265 -2.497948 -1.215499 2.916492 6.105658 -11.242548 0.022594 -1.998375 -0.972375 2.333179 -2.945813 3.512709 -1.231676 -2.439000 -1.285560 1.731888 -3.224832 3.258520 -2.310220 -2.188534 -1.177319 1.346582 0.000001 0.000000 -0.000001 -8.954503 -0.355983 3.811183 -0.706417 3.947136 -3.816137 -3.007735 -0.359805 0.288434 -0.748260 -0.350546 -8.038632 -2.754224 -0.734637 0.284442 0.599653 0.383989 6.920132 -2.397965 -0.334734 0.232338 -0.000000 -0.000001 0.000000 -8.892292 -0.452990 1.476785 -0.165517 8.280993 2.767063 -3.195808 -0.007671 0.063554 -0.344532 -0.460218 -14.398479 -3.083298 -0.799876 0.088824 -0.151826 -0.232038 -6.943826 -2.562027 -1.008824 0.085777 0.000001 0.000003 0.000000 -9.127331 -0.285706 -0.628760 -0.789733 9.943769 -3.435040 -2.851385 -0.321894 -0.027778 0.114881 -0.326515 -11.489883 -2.564866 -0.830028 -0.010149 -0.085672 0.159441 6.072021 -2.238485 -0.470093 -0.015767 -0.000001 0.000002 -0.000001 -8.514365 -0.713725 -2.584836 -0.570783 10.949090 -0.031204 -2.533984 -0.132921 -0.068527 0.276473 -0.287460 -10.679987 -2.084176 -0.507679 -0.046596 -0.022474 0.016707 0.815920 -1.899940 -0.434222 -0.043091 -0.000001 -0.000000 0.000000 8.899668 -4.969729 -0.781568 -21.614473 11.381284 -0.389321 11.429673 11.230469 2.483821 -10.567652 16.185165 -7.516136 0.357714 -8.547658 13.291753 -1.631033 -0.000002 -0.000002 0.000001 -0.000001 0.000000 -8.899667 -4.969735 -0.953894 -45.656300 -2.901014 -2.582960 26.428141 -6.027091 -2.934470 -4.976601 0.002416 2.539263 -0.357717 -8.547736 13.332315 -0.000076 0.000003 0.000001 -0.306573 0.162061 6.518651 0.000001 -0.000001 0.000000 
-2.583935 96.291283 0.308927 27.598728 -31.644167 17.693134 0.000000 8.951158 -0.286645 -2.030316 1.646073 1.189964 -4.045746 2.033598 -0.357103 0.000001 11.934854 -0.382186 -4.091563 1.922411 -0.385783 -0.000000 13.426772 -0.429962 -9.943687 0.231581 -1.533558 0.000000 8.477312 0.443072 -9.943684 0.231586 -1.533561 0.000001 21.306793 1.113632 0.000000 -0.000000 -0.000000 5.225273 11.895883 -0.427614 -0.460214 7.721422 -4.601714 10.405492 -3.014739 0.004701 203.446801 -136.041618 119.883043 -0.484748 -3.015340 -8.599209 -33.911169 -8.828821 14.482813 2.777315 -1.335136 3.119183 6.371869 11.198701 -0.367753 2.221879 -1.068071 2.495347 -4.573047 -4.692942 2.462274 2.339348 -1.267429 1.553802 0.468019 -8.718665 -8.565716 2.048604 -0.536896 0.831260 -0.000001 -0.000001 0.000001 8.911650 -0.521693 3.864252 -0.420244 -4.973008 2.202706 3.059853 -0.215429 0.228809 -0.726037 0.417083 9.666393 2.711093 -0.663375 0.226077 0.002426 -0.002644 -0.036872 2.368223 -0.577840 0.197348 -0.000001 0.000002 -0.000002 8.960660 -0.277762 1.460121 -0.445261 -6.932592 2.216597 3.296594 -0.232032 0.133283 -0.443786 0.413181 10.781899 2.998512 -0.794623 0.145682 0.009062 -0.009789 -0.240381 2.642893 -0.688537 0.127909 -0.000003 -0.000001 -0.000004 9.070089 -0.353671 -0.590426 -0.543393 -9.652446 3.011332 2.741217 -0.232660 -0.019855 0.081249 0.413010 12.801991 2.657956 -0.845875 0.000168 -0.016617 -0.049831 -1.868754 2.292755 -0.648130 -0.002023 -0.000001 -0.000000 0.000000 8.657880 -0.562527 -2.660492 -0.646300 -4.699392 6.032376 2.459366 -0.319018 0.020669 -0.565774 -3.825122 5.099170 2.026387 -0.468309 0.024184 0.002780 -0.018333 -0.595965 1.799413 -0.396191 0.020884 0.000002 -0.000000 0.000001 -5.225265 11.895923 -0.432318 -0.315529 -8.574765 2.113570 -10.405483 -3.014741 -0.004709 -68.889629 62.586628 32.324987 -2.489775 24.087582 9.089509 -40.401833 9.490082 -1.482473 -2.497949 -1.215521 2.916476 6.105652 -11.242544 0.022620 -1.998379 -0.972383 2.333180 -2.945811 3.512714 -1.231671 -2.438985 -1.285561 1.731871 -3.224834 3.258518 -2.310219 -2.188534 -1.177316 1.346581 0.000001 0.000007 0.000002 -8.954489 -0.355983 3.811156 -0.706422 3.947135 -3.816123 -3.007744 -0.359800 0.288442 -0.748263 -0.350544 -8.038632 -2.754226 -0.734645 0.284434 0.599655 0.383983 6.920130 -2.397962 -0.334715 0.232320 -0.000004 0.000000 -0.000004 -8.892286 -0.452998 1.476768 -0.165526 8.280988 2.767070 -3.195789 -0.007654 0.063542 -0.344532 -0.460218 -14.398472 -3.083302 -0.799849 0.088825 -0.151825 -0.232034 -6.943825 -2.562028 -1.008835 0.085772 0.000001 0.000001 0.000000 -9.127323 -0.285730 -0.628782 -0.789739 9.943769 -3.435043 -2.851381 -0.321909 -0.027780 0.114880 -0.326512 -11.489883 -2.564889 -0.830021 -0.010140 -0.085667 0.159440 6.072020 -2.238470 -0.470112 -0.015792 0.000000 0.000003 -0.000001 -8.514371 -0.713735 -2.584856 -0.570792 10.949084 -0.031195 -2.533980 -0.132909 -0.068526 0.276468 -0.287464 -10.679983 -2.084166 -0.507679 -0.046583 -0.022468 0.016716 0.815918 -1.899955 -0.434222 -0.043105 0.000002 -0.000001 0.000006 8.899665 -4.969732 -0.781577 -19.655275 11.890540 -0.557794 9.831049 11.147028 2.551107 -10.167858 16.235445 -7.528518 0.357716 -8.547657 13.291753 -1.993125 0.000001 -0.000003 0.000001 0.000000 0.000000 -8.899669 -4.969726 -0.953898 -44.381306 -1.441675 -2.023343 26.208276 -7.021343 -3.129572 -5.216163 -0.026059 2.955054 -0.357717 -8.547736 13.332317 -0.000086 -0.000003 0.000005 -0.306574 0.162061 6.518651 0.000001 -0.000006 0.000000 
-3.182576 96.452332 0.837259 26.162758 -32.790458 16.301732 -0.000000 8.951157 -0.286641 -2.474184 1.923824 0.509376 -4.764207 2.683442 -1.493762 0.000002 11.934872 -0.382189 -4.822874 2.536028 -1.544418 -0.000000 13.426749 -0.429961 -9.584751 -0.236136 -0.975561 0.000000 8.477300 0.443071 -9.584752 -0.236146 -0.975563 0.000001 21.306778 1.113632 -0.000000 -0.000000 0.000000 5.225271 11.895876 -0.427611 -0.468222 7.758880 -4.566132 10.405498 -3.014737 0.004693 203.178512 -144.554479 121.474108 -0.505574 -3.248974 -8.600504 -32.404204 -6.665070 12.594216 2.777338 -1.335136 3.119183 6.371861 11.198706 -0.367750 2.221871 -1.068108 2.495343 -4.573051 -4.692939 2.462274 2.339344 -1.267401 1.553798 0.468022 -8.718669 -8.565712 2.048594 -0.536892 0.831260 0.000002 -0.000000 0.000002 8.911658 -0.521693 3.864251 -0.420245 -4.973010 2.202706 3.059847 -0.215407 0.228805 -0.726040 0.417083 9.666392 2.711095 -0.663359 0.226080 0.002422 -0.002643 -0.036873 2.368222 -0.577853 0.197350 0.000003 0.000001 -0.000002 8.960680 -0.277788 1.460124 -0.445263 -6.932592 2.216595 3.296588 -0.232006 0.133279 -0.443780 0.413178 10.781898 2.998516 -0.794625 0.145680 0.009063 -0.009790 -0.240380 2.642889 -0.688537 0.127910 0.000003 -0.000000 -0.000006 9.070111 -0.353683 -0.590427 -0.543395 -9.652447 3.011330 2.741251 -0.232626 -0.019856 0.081248 0.413008 12.801984 2.657952 -0.845870 0.000171 -0.016615 -0.049834 -1.868749 2.292762 -0.648125 -0.002025 0.000001 -0.000001 0.000004 8.657881 -0.562544 -2.660492 -0.646307 -4.699390 6.032378 2.459375 -0.319015 0.020675 -0.565770 -3.825124 5.099170 2.026371 -0.468326 0.024182 0.002778 -0.018331 -0.595962 1.799410 -0.396205 0.020878 -0.000001 -0.000001 -0.000001 -5.225271 11.895892 -0.432313 -0.270578 -6.472334 0.282611 -10.405487 -3.014731 -0.004695 -26.488204 62.983428 -8.436017 -2.030351 19.653958 8.915989 -29.977065 6.911132 25.908272 -2.497946 -1.215521 2.916487 6.105635 -11.242538 0.022584 -1.998374 -0.972361 2.333196 -2.945813 3.512710 -1.231676 -2.438997 -1.285574 1.731887 -3.224831 3.258512 -2.310221 -2.188530 -1.177321 1.346563 -0.000001 0.000003 -0.000003 -8.954491 -0.355989 3.811162 -0.706428 3.947139 -3.816139 -3.007752 -0.359791 0.288440 -0.748260 -0.350545 -8.038634 -2.754242 -0.734647 0.284441 0.599651 0.383983 6.920133 -2.397965 -0.334701 0.232332 -0.000000 -0.000000 0.000000 -8.892273 -0.452987 1.476769 -0.165533 8.280992 2.767061 -3.195793 -0.007633 0.063552 -0.344531 -0.460220 -14.398478 -3.083302 -0.799856 0.088823 -0.151827 -0.232034 -6.943828 -2.562028 -1.008840 0.085759 -0.000001 0.000001 0.000000 -9.127331 -0.285714 -0.628772 -0.789749 9.943767 -3.435046 -2.851370 -0.321904 -0.027777 0.114883 -0.326514 -11.489883 -2.564888 -0.830048 -0.010146 -0.085675 0.159437 6.072021 -2.238487 -0.470108 -0.015785 0.000002 0.000001 0.000000 -8.514365 -0.713721 -2.584853 -0.570802 10.949081 -0.031194 -2.533975 -0.132908 -0.068512 0.276471 -0.287462 -10.679988 -2.084193 -0.507691 -0.046604 -0.022472 0.016713 0.815920 -1.899939 -0.434236 -0.043104 0.000001 0.000001 0.000003 8.899668 -4.969738 -0.781572 -16.699030 12.829659 0.122221 7.681063 11.225659 2.864705 -9.500020 15.828460 -7.964739 0.357708 -8.547658 13.291753 -2.536640 -0.000000 -0.000000 0.000001 -0.000000 0.000000 -8.899671 -4.969726 -0.953899 -41.857216 -0.796843 -0.754126 25.428139 -7.462140 -3.157874 -5.430596 -0.034496 2.976817 -0.357713 -8.547736 13.332316 -0.000015 -0.000003 0.000000 -0.306568 0.162061 6.518649 0.000001 0.000004 0.000000 
